<?xml version="1.0" encoding="UTF-8"?>
<!DOCTYPE svg PUBLIC "-//W3C//DTD SVG 1.1//EN" "http://www.w3.org/Graphics/SVG/1.1/DTD/svg11.dtd">
<svg xmlns="http://www.w3.org/2000/svg" version="1.1" width="57px" height="117px" style="shape-rendering:geometricPrecision; text-rendering:geometricPrecision; image-rendering:optimizeQuality; fill-rule:evenodd; clip-rule:evenodd" xmlns:xlink="http://www.w3.org/1999/xlink">
<g><path style="opacity:1" fill="#fcfcfc" d="M 24.5,4.5 C 25.5,4.5 26.5,4.5 27.5,4.5C 24.4116,18.5991 21.4116,32.9324 18.5,47.5C 18.6667,48.8333 18.8333,50.1667 19,51.5C 21.0538,39.2924 23.7204,27.2924 27,15.5C 27.0916,35.9136 27.2583,56.247 27.5,76.5C 27.6888,82.2816 27.0221,87.9483 25.5,93.5C 20.5236,98.2515 14.5236,100.251 7.5,99.5C 7.15528,93.298 5.48862,87.4647 2.5,82C 5.25533,78.6545 7.08866,74.8211 8,70.5C 9.08113,62.685 10.2478,55.0183 11.5,47.5C 12.1515,48.0906 12.8182,48.7573 13.5,49.5C 17.0014,41.6525 18.6681,33.6525 18.5,25.5C 18.8143,22.0534 19.6476,18.7201 21,15.5C 21.3333,16.5 21.6667,17.5 22,18.5C 22.9443,13.8086 23.7776,9.14193 24.5,4.5 Z"/></g>
<g><path style="opacity:1" fill="#fafafa" d="M 33.5,5.5 C 33.3359,8.1873 33.5026,10.854 34,13.5C 34.3333,12.8333 34.6667,12.1667 35,11.5C 35.2784,12.4158 35.7784,13.0825 36.5,13.5C 37.1667,13.5 37.5,13.8333 37.5,14.5C 36.459,17.7482 37.1257,20.7482 39.5,23.5C 39.5,23.8333 39.5,24.1667 39.5,24.5C 39.5875,27.5983 39.0875,27.9316 38,25.5C 37.9271,28.1576 38.2604,30.8243 39,33.5C 39.3333,32.5 39.6667,31.5 40,30.5C 41.0616,37.5401 43.5616,43.8734 47.5,49.5C 47.5569,50.609 47.8902,51.609 48.5,52.5C 47.3516,56.9811 47.1849,61.6478 48,66.5C 48.3736,68.4913 49.207,70.158 50.5,71.5C 51.1667,71.5 51.5,71.8333 51.5,72.5C 50.4017,73.6009 50.235,74.9343 51,76.5C 52.8793,78.5268 54.046,80.8602 54.5,83.5C 51.9646,85.8465 51.2979,88.5132 52.5,91.5C 52.5,92.1667 52.1667,92.5 51.5,92.5C 49.8372,94.4385 49.1706,96.7718 49.5,99.5C 46.2869,99.19 43.2869,99.5233 40.5,100.5C 39.8333,100.5 39.5,100.167 39.5,99.5C 37.1318,98.217 34.9651,96.5503 33,94.5C 32.6012,94.7284 32.4346,95.0618 32.5,95.5C 31.6618,95.1583 31.3284,94.4916 31.5,93.5C 30.1851,88.256 29.5185,82.9227 29.5,77.5C 29.7592,56.9134 29.9259,36.2467 30,15.5C 31.1683,19.2242 32.3349,22.8908 33.5,26.5C 32.4916,18.9498 31.1583,11.6164 29.5,4.5C 30.9587,4.43255 32.2921,4.76589 33.5,5.5 Z"/></g>
<g><path style="opacity:0.937" fill="#8a8a8a" d="M 23.5,-0.5 C 26.8333,-0.5 30.1667,-0.5 33.5,-0.5C 34.2855,4.21274 35.2855,8.87941 36.5,13.5C 35.7784,13.0825 35.2784,12.4158 35,11.5C 34.6667,12.1667 34.3333,12.8333 34,13.5C 33.5026,10.854 33.3359,8.1873 33.5,5.5C 33.7093,3.28564 32.876,1.61898 31,0.5C 29.3333,1.83333 27.6667,1.83333 26,0.5C 23.945,1.55497 23.445,2.8883 24.5,4.5C 23.7776,9.14193 22.9443,13.8086 22,18.5C 21.6667,17.5 21.3333,16.5 21,15.5C 19.6476,18.7201 18.8143,22.0534 18.5,25.5C 17.8333,26.1667 17.1667,26.8333 16.5,27.5C 18.8427,18.1546 21.1761,8.82129 23.5,-0.5 Z"/></g>
<g><path style="opacity:1" fill="#c8c8c8" d="M 33.5,5.5 C 32.2921,4.76589 30.9587,4.43255 29.5,4.5C 31.1583,11.6164 32.4916,18.9498 33.5,26.5C 32.3349,22.8908 31.1683,19.2242 30,15.5C 29.9259,36.2467 29.7592,56.9134 29.5,77.5C 28.8333,77.1667 28.1667,76.8333 27.5,76.5C 27.2583,56.247 27.0916,35.9136 27,15.5C 23.7204,27.2924 21.0538,39.2924 19,51.5C 18.8333,50.1667 18.6667,48.8333 18.5,47.5C 21.4116,32.9324 24.4116,18.5991 27.5,4.5C 26.5,4.5 25.5,4.5 24.5,4.5C 23.445,2.8883 23.945,1.55497 26,0.5C 27.6667,1.83333 29.3333,1.83333 31,0.5C 32.876,1.61898 33.7093,3.28564 33.5,5.5 Z"/></g>
<g><path style="opacity:0.063" fill="#7b7b7b" d="M 37.5,14.5 C 38.1667,17.5 38.8333,20.5 39.5,23.5C 37.1257,20.7482 36.459,17.7482 37.5,14.5 Z"/></g>
<g><path style="opacity:1" fill="#b5b5b5" d="M 33.5,26.5 C 36.5681,34.1247 38.0681,42.1247 38,50.5C 36.4947,42.4833 34.9947,34.4833 33.5,26.5 Z"/></g>
<g><path style="opacity:0.008" fill="#898989" d="M 39.5,24.5 C 41.4102,33.0222 44.0769,41.3556 47.5,49.5C 43.5616,43.8734 41.0616,37.5401 40,30.5C 39.6667,31.5 39.3333,32.5 39,33.5C 38.2604,30.8243 37.9271,28.1576 38,25.5C 39.0875,27.9316 39.5875,27.5983 39.5,24.5 Z"/></g>
<g><path style="opacity:0.588" fill="#7b7b7b" d="M 14.5,37.5 C 14.6545,40.716 13.6545,43.3826 11.5,45.5C 12.129,42.6027 13.129,39.936 14.5,37.5 Z"/></g>
<g><path style="opacity:1" fill="#d0d0d0" d="M 18.5,25.5 C 18.6681,33.6525 17.0014,41.6525 13.5,49.5C 12.8182,48.7573 12.1515,48.0906 11.5,47.5C 11.5,46.8333 11.5,46.1667 11.5,45.5C 13.6545,43.3826 14.6545,40.716 14.5,37.5C 14.7878,34.0611 15.4544,30.7278 16.5,27.5C 17.1667,26.8333 17.8333,26.1667 18.5,25.5 Z"/></g>
<g><path style="opacity:0.008" fill="#7e7e7e" d="M 48.5,52.5 C 48.2315,58.9494 48.8982,65.2828 50.5,71.5C 49.207,70.158 48.3736,68.4913 48,66.5C 47.1849,61.6478 47.3516,56.9811 48.5,52.5 Z"/></g>
<g><path style="opacity:0.953" fill="#808080" d="M 51.5,72.5 C 51.6516,76.1407 53.3182,78.8073 56.5,80.5C 56.5,81.1667 56.5,81.8333 56.5,82.5C 55.8333,82.8333 55.1667,83.1667 54.5,83.5C 54.046,80.8602 52.8793,78.5268 51,76.5C 50.235,74.9343 50.4017,73.6009 51.5,72.5 Z"/></g>
<g><path style="opacity:0.737" fill="#868686" d="M 11.5,45.5 C 11.5,46.1667 11.5,46.8333 11.5,47.5C 10.2478,55.0183 9.08113,62.685 8,70.5C 7.08866,74.8211 5.25533,78.6545 2.5,82C 5.48862,87.4647 7.15528,93.298 7.5,99.5C 14.5236,100.251 20.5236,98.2515 25.5,93.5C 24.7457,96.091 23.079,97.9243 20.5,99C 15.8893,100.16 11.2226,100.993 6.5,101.5C 6.32124,94.2962 4.32124,87.6296 0.5,81.5C 4.64438,76.6379 7.14438,70.9713 8,64.5C 8.33333,59.8333 8.66667,55.1667 9,50.5C 9.09946,48.3474 9.9328,46.6808 11.5,45.5 Z"/></g>
<g><path style="opacity:0.243" fill="#828282" d="M 54.5,83.5 C 53.8333,86.1667 53.1667,88.8333 52.5,91.5C 51.2979,88.5132 51.9646,85.8465 54.5,83.5 Z"/></g>
<g><path style="opacity:0.804" fill="#969696" d="M 27.5,76.5 C 28.1667,76.8333 28.8333,77.1667 29.5,77.5C 29.5185,82.9227 30.1851,88.256 31.5,93.5C 30.3249,92.0262 29.3249,90.3596 28.5,88.5C 27.6751,90.3596 26.6751,92.0262 25.5,93.5C 27.0221,87.9483 27.6888,82.2816 27.5,76.5 Z"/></g>
<g><path style="opacity:0.063" fill="#818181" d="M 39.5,99.5 C 36.3855,99.4452 34.0522,98.1119 32.5,95.5C 32.4346,95.0618 32.6012,94.7284 33,94.5C 34.9651,96.5503 37.1318,98.217 39.5,99.5 Z"/></g>
<g><path style="opacity:0.91" fill="#969696" d="M 51.5,92.5 C 51.4921,95.5448 51.1587,98.5448 50.5,101.5C 47.2139,100.793 43.8806,100.46 40.5,100.5C 43.2869,99.5233 46.2869,99.19 49.5,99.5C 49.1706,96.7718 49.8372,94.4385 51.5,92.5 Z"/></g>
<g><path style="opacity:0.669" fill="#020202" d="M 13.5,116.5 C 12.1667,116.5 10.8333,116.5 9.5,116.5C 9.02959,115.307 8.02959,114.64 6.5,114.5C 4.64545,114.34 3.31212,115.007 2.5,116.5C 1.5,116.5 0.5,116.5 -0.5,116.5C -0.5,115.5 -0.5,114.5 -0.5,113.5C 1.7411,110.117 3.40776,106.45 4.5,102.5C 5.82207,102.33 6.98873,102.663 8,103.5C 9.93681,107.817 11.7701,112.15 13.5,116.5 Z M 5.5,108.5 C 6.26739,109.172 6.93406,110.005 7.5,111C 5.9387,111.188 5.27203,110.355 5.5,108.5 Z"/></g>
<g><path style="opacity:0.691" fill="#000000" d="M 48.5,116.5 C 47.5,116.5 46.5,116.5 45.5,116.5C 44.5,107.167 43.5,107.167 42.5,116.5C 41.5,116.5 40.5,116.5 39.5,116.5C 39.5,111.833 39.5,107.167 39.5,102.5C 40.5,102.5 41.5,102.5 42.5,102.5C 42.5,103.833 42.5,105.167 42.5,106.5C 44.4672,106.261 46.3005,106.594 48,107.5C 48.498,110.482 48.6646,113.482 48.5,116.5 Z"/></g>
<g><path style="opacity:0.591" fill="#000000" d="M 54.5,116.5 C 53.5,116.5 52.5,116.5 51.5,116.5C 51.5,111.833 51.5,107.167 51.5,102.5C 53.3464,102.222 54.6798,102.889 55.5,104.5C 54.5672,108.429 54.2338,112.429 54.5,116.5 Z"/></g>
<g><path style="opacity:0.735" fill="#030303" d="M 21.5,116.5 C 19.8333,116.5 18.1667,116.5 16.5,116.5C 16.0059,113.519 15.0059,110.686 13.5,108C 14.3333,106.5 15.5,105.333 17,104.5C 18.3002,105.707 19.8002,106.374 21.5,106.5C 21.5,107.5 21.5,108.5 21.5,109.5C 20.5,109.5 19.5,109.5 18.5,109.5C 18.5,110.833 18.5,112.167 18.5,113.5C 19.5,113.5 20.5,113.5 21.5,113.5C 21.5,114.5 21.5,115.5 21.5,116.5 Z"/></g>
<g><path style="opacity:0.598" fill="#000000" d="M 37.5,116.5 C 35.5,116.5 33.5,116.5 31.5,116.5C 30.2246,112.834 29.8912,109.168 30.5,105.5C 31.1667,105.167 31.8333,104.833 32.5,104.5C 34.0564,105.547 35.7231,106.214 37.5,106.5C 37.5,107.5 37.5,108.5 37.5,109.5C 36.5,109.5 35.5,109.5 34.5,109.5C 34.5,110.833 34.5,112.167 34.5,113.5C 35.5,113.5 36.5,113.5 37.5,113.5C 37.5,114.5 37.5,115.5 37.5,116.5 Z"/></g>
<g><path style="opacity:0.482" fill="#040404" d="M 27.5,116.5 C 26.1667,116.5 24.8333,116.5 23.5,116.5C 23.3343,112.154 23.501,107.821 24,103.5C 25.5445,102.179 26.7112,102.512 27.5,104.5C 27.3303,108.318 27.3303,112.318 27.5,116.5 Z"/></g>
</svg>
